
          <svg xmlns="http://www.w3.org/2000/svg" xmlns:cc="http://creativecommons.org/ns#" xmlns:rdf="http://www.w3.org/1999/02/22-rdf-syntax-ns#" version="1.1" width="489.43743896484375" height="590.025390625">
            <defs>
              <style type="text/css">svg {
          background-color: #fff; }
        
        .root text,
        .root tspan {
          font: 12px Arial; }
        
        .root path {
          fill-opacity: 0;
          stroke-width: 2px;
          stroke: #000; }
        
        .root circle {
          fill: #6b6659;
          stroke-width: 2px;
          stroke: #000; }
        
        .anchor text, .any-character text {
          fill: #fff; }
        
        .anchor rect, .any-character rect {
          fill: #6b6659; }
        
        .escape text, .charset-escape text, .literal text {
          fill: #000; }
        
        .escape rect, .charset-escape rect {
          fill: #bada55; }
        
        .literal rect {
          fill: #dae9e5; }
        
        .charset .charset-box {
          fill: #cbcbba; }
        
        .subexp .subexp-label tspan,
        .charset .charset-label tspan,
        .match-fragment .repeat-label tspan {
          font-size: 10px; }
        
        .repeat-label {
          cursor: help; }
        
        .subexp .subexp-label tspan,
        .charset .charset-label tspan {
          dominant-baseline: text-after-edge; }
        
        .subexp .subexp-box {
          stroke: #908c83;
          stroke-dasharray: 6,2;
          stroke-width: 2px;
          fill-opacity: 0; }
        
        .quote {
          fill: #908c83; }
        </style>
            </defs>
            <metadata>
              <rdf:rdf>
                <cc:license rdf:about="http://creativecommons.org/licenses/by/3.0/">
                  <cc:permits rdf:resource="http://creativecommons.org/ns#Reproduction"></cc:permits>
                  <cc:permits rdf:resource="http://creativecommons.org/ns#Distribution"></cc:permits>
                  <cc:requires rdf:resource="http://creativecommons.org/ns#Notice"></cc:requires>
                  <cc:requires rdf:resource="http://creativecommons.org/ns#Attribution"></cc:requires>
                  <cc:permits rdf:resource="http://creativecommons.org/ns#DerivativeWorks"></cc:permits>
                </cc:license>
              </rdf:rdf>
            </metadata>
          <desc>Created with Snap</desc><g class="root" transform="matrix(1,0,0,1,15,9.8955)"><g class="regexp match" transform="matrix(1,0,0,1,10,0)"><path d="M70.703125,291.1172H100.7031M176.04683474121094,291.11719531250003H211.0469M232.3828375,291.1172H262.3828M337.7265347412109,291.11719531250003H372.7265"></path><g class="match-fragment" transform="matrix(1,0,0,1,0,279.3672)"><g class="label anchor"><rect width="70.703125" height="23.5"></rect><text x="0" y="0" transform="matrix(1,0,0,1,5,16.75)"><tspan>Start of line</tspan></text></g></g><g class="match-fragment subexp" transform="matrix(1,0,0,1,80.7031,0)"><rect rx="3" ry="3" class="subexp-box" transform="matrix(1,0,0,1,0,11.1045)" width="120.34373474121094" height="559.025390625"></rect><text x="0" y="0" class="subexp-label" transform="matrix(1,0,0,1,0,11.1045)"><tspan>group #1</tspan></text><g class="regexp match match-fragment" transform="matrix(1,0,0,1,10,21.1045)"><path d="M10,270.0126953125q-10,0 -10,10v249.0126953125q0,10 10,10h75.34373474121094q10,0 10,-10v-249.0126953125q0,-10 -10,-10M95.34373474121094,285.0126953125l5,-5m-5,5l-5,-5"></path><g class="charset" transform="matrix(1,0,0,1,10,0)"><rect rx="3" ry="3" class="charset-box" transform="matrix(1,0,0,1,0,11)" width="75.34373474121094" height="518.025390625"></rect><text x="0" y="0" class="charset-label" transform="matrix(1,0,0,1,0,11)"><tspan>One of:</tspan></text><g transform="matrix(1,0,0,1,5,16)"><g class="charset-range" transform="matrix(1,0,0,1,1.332,0)"><text x="0" y="0" transform="matrix(1,0,0,1,29.6797,16)">-</text><g class="literal" transform="matrix(1,0,0,1,0,0)"><g class="label"><rect width="24.6796875" height="23.5" rx="3" ry="3"></rect><text x="0" y="0" transform="matrix(1,0,0,1,5,16.75)"><tspan class="quote">“</tspan><tspan>a</tspan><tspan class="quote">”</tspan></text></g></g><g class="literal" transform="matrix(1,0,0,1,38.6797,0)"><g class="label"><rect width="24" height="23.5" rx="3" ry="3"></rect><text x="0" y="0" transform="matrix(1,0,0,1,5,16.75)"><tspan class="quote">“</tspan><tspan>z</tspan><tspan class="quote">”</tspan></text></g></g></g><g class="charset-range" transform="matrix(1,0,0,1,0,28.5)"><text x="0" y="0" transform="matrix(1,0,0,1,31.0078,16)">-</text><g class="literal" transform="matrix(1,0,0,1,0,0)"><g class="label"><rect width="26.0078125" height="23.5" rx="3" ry="3"></rect><text x="0" y="0" transform="matrix(1,0,0,1,5,16.75)"><tspan class="quote">“</tspan><tspan>A</tspan><tspan class="quote">”</tspan></text></g></g><g class="literal" transform="matrix(1,0,0,1,40.0078,0)"><g class="label"><rect width="25.3359375" height="23.5" rx="3" ry="3"></rect><text x="0" y="0" transform="matrix(1,0,0,1,5,16.75)"><tspan class="quote">“</tspan><tspan>Z</tspan><tspan class="quote">”</tspan></text></g></g></g><g class="charset-range" transform="matrix(1,0,0,1,0.9922,57)"><text x="0" y="0" transform="matrix(1,0,0,1,29.6797,16)">-</text><g class="literal" transform="matrix(1,0,0,1,0,0)"><g class="label"><rect width="24.6796875" height="23.5" rx="3" ry="3"></rect><text x="0" y="0" transform="matrix(1,0,0,1,5,16.75)"><tspan class="quote">“</tspan><tspan>0</tspan><tspan class="quote">”</tspan></text></g></g><g class="literal" transform="matrix(1,0,0,1,38.6797,0)"><g class="label"><rect width="24.6796875" height="23.5" rx="3" ry="3"></rect><text x="0" y="0" transform="matrix(1,0,0,1,5,16.75)"><tspan class="quote">“</tspan><tspan>9</tspan><tspan class="quote">”</tspan></text></g></g></g><g class="literal" transform="matrix(1,0,0,1,22.0039,85.5)"><g class="label"><rect width="21.3359375" height="23.5" rx="3" ry="3"></rect><text x="0" y="0" transform="matrix(1,0,0,1,5,16.75)"><tspan class="quote">“</tspan><tspan>!</tspan><tspan class="quote">”</tspan></text></g></g><g class="literal" transform="matrix(1,0,0,1,20.332,114)"><g class="label"><rect width="24.6796875" height="23.5" rx="3" ry="3"></rect><text x="0" y="0" transform="matrix(1,0,0,1,5,16.75)"><tspan class="quote">“</tspan><tspan>#</tspan><tspan class="quote">”</tspan></text></g></g><g class="literal" transform="matrix(1,0,0,1,20.332,142.5)"><g class="label"><rect width="24.6796875" height="23.5" rx="3" ry="3"></rect><text x="0" y="0" transform="matrix(1,0,0,1,5,16.75)"><tspan class="quote">“</tspan><tspan>$</tspan><tspan class="quote">”</tspan></text></g></g><g class="literal" transform="matrix(1,0,0,1,18.3359,171)"><g class="label"><rect width="28.671875" height="23.5" rx="3" ry="3"></rect><text x="0" y="0" transform="matrix(1,0,0,1,5,16.75)"><tspan class="quote">“</tspan><tspan>%</tspan><tspan class="quote">”</tspan></text></g></g><g class="literal" transform="matrix(1,0,0,1,19.668,199.5)"><g class="label"><rect width="26.0078125" height="23.5" rx="3" ry="3"></rect><text x="0" y="0" transform="matrix(1,0,0,1,5,16.75)"><tspan class="quote">“</tspan><tspan>&amp;</tspan><tspan class="quote">”</tspan></text></g></g><g class="literal" transform="matrix(1,0,0,1,22.5234,228)"><g class="label"><rect width="20.296875" height="23.5" rx="3" ry="3"></rect><text x="0" y="0" transform="matrix(1,0,0,1,5,16.75)"><tspan class="quote">“</tspan><tspan>'</tspan><tspan class="quote">”</tspan></text></g></g><g class="literal" transform="matrix(1,0,0,1,21.3359,256.5)"><g class="label"><rect width="22.671875" height="23.5" rx="3" ry="3"></rect><text x="0" y="0" transform="matrix(1,0,0,1,5,16.75)"><tspan class="quote">“</tspan><tspan>*</tspan><tspan class="quote">”</tspan></text></g></g><g class="literal" transform="matrix(1,0,0,1,20.168,285)"><g class="label"><rect width="25.0078125" height="23.5" rx="3" ry="3"></rect><text x="0" y="0" transform="matrix(1,0,0,1,5,16.75)"><tspan class="quote">“</tspan><tspan>+</tspan><tspan class="quote">”</tspan></text></g></g><g class="literal" transform="matrix(1,0,0,1,21.6719,313.5)"><g class="label"><rect width="22" height="23.5" rx="3" ry="3"></rect><text x="0" y="0" transform="matrix(1,0,0,1,5,16.75)"><tspan class="quote">“</tspan><tspan>-</tspan><tspan class="quote">”</tspan></text></g></g><g class="literal" transform="matrix(1,0,0,1,22.0039,342)"><g class="label"><rect width="21.3359375" height="23.5" rx="3" ry="3"></rect><text x="0" y="0" transform="matrix(1,0,0,1,5,16.75)"><tspan class="quote">“</tspan><tspan>.</tspan><tspan class="quote">”</tspan></text></g></g><g class="literal" transform="matrix(1,0,0,1,20.8555,370.5)"><g class="label"><rect width="23.6328125" height="23.5" rx="3" ry="3"></rect><text x="0" y="0" transform="matrix(1,0,0,1,5,16.75)"><tspan class="quote">“</tspan><tspan>^</tspan><tspan class="quote">”</tspan></text></g></g><g class="literal" transform="matrix(1,0,0,1,20.332,399)"><g class="label"><rect width="24.6796875" height="23.5" rx="3" ry="3"></rect><text x="0" y="0" transform="matrix(1,0,0,1,5,16.75)"><tspan class="quote">“</tspan><tspan>_</tspan><tspan class="quote">”</tspan></text></g></g><g class="literal" transform="matrix(1,0,0,1,21.6719,427.5)"><g class="label"><rect width="22" height="23.5" rx="3" ry="3"></rect><text x="0" y="0" transform="matrix(1,0,0,1,5,16.75)"><tspan class="quote">“</tspan><tspan>`</tspan><tspan class="quote">”</tspan></text></g></g><g class="literal" transform="matrix(1,0,0,1,22.1133,456)"><g class="label"><rect width="21.1171875" height="23.525390625" rx="3" ry="3"></rect><text x="0" y="0" transform="matrix(1,0,0,1,5,16.7627)"><tspan class="quote">“</tspan><tspan>|</tspan><tspan class="quote">”</tspan></text></g></g><g class="literal" transform="matrix(1,0,0,1,20.168,484.5254)"><g class="label"><rect width="25.0078125" height="23.5" rx="3" ry="3"></rect><text x="0" y="0" transform="matrix(1,0,0,1,5,16.75)"><tspan class="quote">“</tspan><tspan>~</tspan><tspan class="quote">”</tspan></text></g></g></g></g></g></g><g class="match-fragment literal" transform="matrix(1,0,0,1,211.0469,279.3672)"><g class="label"><rect width="21.3359375" height="23.5" rx="3" ry="3"></rect><text x="0" y="0" transform="matrix(1,0,0,1,5,16.75)"><tspan class="quote">“</tspan><tspan>/</tspan><tspan class="quote">”</tspan></text></g></g><g class="match-fragment subexp" transform="matrix(1,0,0,1,242.3828,0)"><rect rx="3" ry="3" class="subexp-box" transform="matrix(1,0,0,1,0,11.1045)" width="120.34373474121094" height="559.025390625"></rect><text x="0" y="0" class="subexp-label" transform="matrix(1,0,0,1,0,11.1045)"><tspan>group #2</tspan></text><g class="regexp match match-fragment" transform="matrix(1,0,0,1,10,21.1045)"><path d="M10,270.0126953125q-10,0 -10,10v249.0126953125q0,10 10,10h75.34373474121094q10,0 10,-10v-249.0126953125q0,-10 -10,-10M95.34373474121094,285.0126953125l5,-5m-5,5l-5,-5"></path><g class="charset" transform="matrix(1,0,0,1,10,0)"><rect rx="3" ry="3" class="charset-box" transform="matrix(1,0,0,1,0,11)" width="75.34373474121094" height="518.025390625"></rect><text x="0" y="0" class="charset-label" transform="matrix(1,0,0,1,0,11)"><tspan>One of:</tspan></text><g transform="matrix(1,0,0,1,5,16)"><g class="charset-range" transform="matrix(1,0,0,1,1.332,0)"><text x="0" y="0" transform="matrix(1,0,0,1,29.6797,16)">-</text><g class="literal" transform="matrix(1,0,0,1,0,0)"><g class="label"><rect width="24.6796875" height="23.5" rx="3" ry="3"></rect><text x="0" y="0" transform="matrix(1,0,0,1,5,16.75)"><tspan class="quote">“</tspan><tspan>a</tspan><tspan class="quote">”</tspan></text></g></g><g class="literal" transform="matrix(1,0,0,1,38.6797,0)"><g class="label"><rect width="24" height="23.5" rx="3" ry="3"></rect><text x="0" y="0" transform="matrix(1,0,0,1,5,16.75)"><tspan class="quote">“</tspan><tspan>z</tspan><tspan class="quote">”</tspan></text></g></g></g><g class="charset-range" transform="matrix(1,0,0,1,0,28.5)"><text x="0" y="0" transform="matrix(1,0,0,1,31.0078,16)">-</text><g class="literal" transform="matrix(1,0,0,1,0,0)"><g class="label"><rect width="26.0078125" height="23.5" rx="3" ry="3"></rect><text x="0" y="0" transform="matrix(1,0,0,1,5,16.75)"><tspan class="quote">“</tspan><tspan>A</tspan><tspan class="quote">”</tspan></text></g></g><g class="literal" transform="matrix(1,0,0,1,40.0078,0)"><g class="label"><rect width="25.3359375" height="23.5" rx="3" ry="3"></rect><text x="0" y="0" transform="matrix(1,0,0,1,5,16.75)"><tspan class="quote">“</tspan><tspan>Z</tspan><tspan class="quote">”</tspan></text></g></g></g><g class="charset-range" transform="matrix(1,0,0,1,0.9922,57)"><text x="0" y="0" transform="matrix(1,0,0,1,29.6797,16)">-</text><g class="literal" transform="matrix(1,0,0,1,0,0)"><g class="label"><rect width="24.6796875" height="23.5" rx="3" ry="3"></rect><text x="0" y="0" transform="matrix(1,0,0,1,5,16.75)"><tspan class="quote">“</tspan><tspan>0</tspan><tspan class="quote">”</tspan></text></g></g><g class="literal" transform="matrix(1,0,0,1,38.6797,0)"><g class="label"><rect width="24.6796875" height="23.5" rx="3" ry="3"></rect><text x="0" y="0" transform="matrix(1,0,0,1,5,16.75)"><tspan class="quote">“</tspan><tspan>9</tspan><tspan class="quote">”</tspan></text></g></g></g><g class="literal" transform="matrix(1,0,0,1,22.0039,85.5)"><g class="label"><rect width="21.3359375" height="23.5" rx="3" ry="3"></rect><text x="0" y="0" transform="matrix(1,0,0,1,5,16.75)"><tspan class="quote">“</tspan><tspan>!</tspan><tspan class="quote">”</tspan></text></g></g><g class="literal" transform="matrix(1,0,0,1,20.332,114)"><g class="label"><rect width="24.6796875" height="23.5" rx="3" ry="3"></rect><text x="0" y="0" transform="matrix(1,0,0,1,5,16.75)"><tspan class="quote">“</tspan><tspan>#</tspan><tspan class="quote">”</tspan></text></g></g><g class="literal" transform="matrix(1,0,0,1,20.332,142.5)"><g class="label"><rect width="24.6796875" height="23.5" rx="3" ry="3"></rect><text x="0" y="0" transform="matrix(1,0,0,1,5,16.75)"><tspan class="quote">“</tspan><tspan>$</tspan><tspan class="quote">”</tspan></text></g></g><g class="literal" transform="matrix(1,0,0,1,18.3359,171)"><g class="label"><rect width="28.671875" height="23.5" rx="3" ry="3"></rect><text x="0" y="0" transform="matrix(1,0,0,1,5,16.75)"><tspan class="quote">“</tspan><tspan>%</tspan><tspan class="quote">”</tspan></text></g></g><g class="literal" transform="matrix(1,0,0,1,19.668,199.5)"><g class="label"><rect width="26.0078125" height="23.5" rx="3" ry="3"></rect><text x="0" y="0" transform="matrix(1,0,0,1,5,16.75)"><tspan class="quote">“</tspan><tspan>&amp;</tspan><tspan class="quote">”</tspan></text></g></g><g class="literal" transform="matrix(1,0,0,1,22.5234,228)"><g class="label"><rect width="20.296875" height="23.5" rx="3" ry="3"></rect><text x="0" y="0" transform="matrix(1,0,0,1,5,16.75)"><tspan class="quote">“</tspan><tspan>'</tspan><tspan class="quote">”</tspan></text></g></g><g class="literal" transform="matrix(1,0,0,1,21.3359,256.5)"><g class="label"><rect width="22.671875" height="23.5" rx="3" ry="3"></rect><text x="0" y="0" transform="matrix(1,0,0,1,5,16.75)"><tspan class="quote">“</tspan><tspan>*</tspan><tspan class="quote">”</tspan></text></g></g><g class="literal" transform="matrix(1,0,0,1,20.168,285)"><g class="label"><rect width="25.0078125" height="23.5" rx="3" ry="3"></rect><text x="0" y="0" transform="matrix(1,0,0,1,5,16.75)"><tspan class="quote">“</tspan><tspan>+</tspan><tspan class="quote">”</tspan></text></g></g><g class="literal" transform="matrix(1,0,0,1,21.6719,313.5)"><g class="label"><rect width="22" height="23.5" rx="3" ry="3"></rect><text x="0" y="0" transform="matrix(1,0,0,1,5,16.75)"><tspan class="quote">“</tspan><tspan>-</tspan><tspan class="quote">”</tspan></text></g></g><g class="literal" transform="matrix(1,0,0,1,22.0039,342)"><g class="label"><rect width="21.3359375" height="23.5" rx="3" ry="3"></rect><text x="0" y="0" transform="matrix(1,0,0,1,5,16.75)"><tspan class="quote">“</tspan><tspan>.</tspan><tspan class="quote">”</tspan></text></g></g><g class="literal" transform="matrix(1,0,0,1,20.8555,370.5)"><g class="label"><rect width="23.6328125" height="23.5" rx="3" ry="3"></rect><text x="0" y="0" transform="matrix(1,0,0,1,5,16.75)"><tspan class="quote">“</tspan><tspan>^</tspan><tspan class="quote">”</tspan></text></g></g><g class="literal" transform="matrix(1,0,0,1,20.332,399)"><g class="label"><rect width="24.6796875" height="23.5" rx="3" ry="3"></rect><text x="0" y="0" transform="matrix(1,0,0,1,5,16.75)"><tspan class="quote">“</tspan><tspan>_</tspan><tspan class="quote">”</tspan></text></g></g><g class="literal" transform="matrix(1,0,0,1,21.6719,427.5)"><g class="label"><rect width="22" height="23.5" rx="3" ry="3"></rect><text x="0" y="0" transform="matrix(1,0,0,1,5,16.75)"><tspan class="quote">“</tspan><tspan>`</tspan><tspan class="quote">”</tspan></text></g></g><g class="literal" transform="matrix(1,0,0,1,22.1133,456)"><g class="label"><rect width="21.1171875" height="23.525390625" rx="3" ry="3"></rect><text x="0" y="0" transform="matrix(1,0,0,1,5,16.7627)"><tspan class="quote">“</tspan><tspan>|</tspan><tspan class="quote">”</tspan></text></g></g><g class="literal" transform="matrix(1,0,0,1,20.168,484.5254)"><g class="label"><rect width="25.0078125" height="23.5" rx="3" ry="3"></rect><text x="0" y="0" transform="matrix(1,0,0,1,5,16.75)"><tspan class="quote">“</tspan><tspan>~</tspan><tspan class="quote">”</tspan></text></g></g></g></g></g></g><g class="match-fragment" transform="matrix(1,0,0,1,372.7265,279.3672)"><g class="label anchor"><rect width="66.7109375" height="23.5"></rect><text x="0" y="0" transform="matrix(1,0,0,1,5,16.75)"><tspan>End of line</tspan></text></g></g></g><path d="M10,291.1172H0M449.4374375,291.1172H459.43743896484375"></path><circle cx="0" cy="291.1172" r="5"></circle><circle cx="459.43743896484375" cy="291.1172" r="5"></circle></g></svg>
        