<?xml version="1.0" encoding="UTF-8"?>
<svg
  xmlns="http://www.w3.org/2000/svg"
  version="1.1"
  width="1000px"
  height="1000px"
  style="shape-rendering:geometricPrecision; text-rendering:geometricPrecision; image-rendering:optimizeQuality; fill-rule:evenodd; clip-rule:evenodd"
  viewBox="7560.12 11452.82 5901.1 6822.16"
>
  <defs>
    <style type="text/css"><![CDATA[
      .fil14 {fill:#797979}
      .fil12 {fill:#848484}
      .fil5 {fill:#9D9D9D}
      .fil0 {fill:#A4A4A4}
      .fil8 {fill:#A5A5A5}
      .fil13 {fill:#B2B2B2}
      .fil1 {fill:#BBBBBB}
      .fil6 {fill:#BEBEBE}
      .fil15 {fill:#BFBFBF}
      .fil3 {fill:silver}
      .fil2 {fill:#C6C6C6}
      .fil10 {fill:#C7C7C7}
      .fil11 {fill:#CDCDCD}
      .fil7 {fill:#D0D0D0}
      .fil9 {fill:#DBDBDB}
      .fil4 {fill:gainsboro}
    ]]></style>
    <g id="cog" viewBox="0 0 256 256">
      <circle cx="128" cy="128" r="40" fill="none" stroke="#797979" stroke-linecap="round" stroke-linejoin="round" stroke-width="16" />
      <path fill="none" stroke="#797979" stroke-linecap="round" stroke-linejoin="round" stroke-width="16" d="M41.43,178.09A99.14,99.14,0,0,1,31.36,153.8l16.78-21a81.59,81.59,0,0,1,0-9.64l-16.77-21a99.43,99.43,0,0,1,10.05-24.3l26.71-3a81,81,0,0,1,6.81-6.81l3-26.7A99.14,99.14,0,0,1,102.2,31.36l21,16.78a81.59,81.59,0,0,1,9.64,0l21-16.77a99.43,99.43,0,0,1,24.3,10.05l3,26.71a81,81,0,0,1,6.81,6.81l26.7,3a99.14,99.14,0,0,1,10.07,24.29l-16.78,21a81.59,81.59,0,0,1,0,9.64l16.77,21a99.43,99.43,0,0,1-10,24.3l-26.71,3a81,81,0,0,1-6.81,6.81l-3,26.7a99.14,99.14,0,0,1-24.29,10.07l-21-16.78a81.59,81.59,0,0,1-9.64,0l-21,16.77a99.43,99.43,0,0,1-24.3-10l-3-26.71a81,81,0,0,1-6.81-6.81Z" />
    </g>
  </defs>
  <g>
    <g>
      <polygon class="fil0" points="9813.45,14968.17 9722.15,15332.16 9857.08,15502.59 10080.06,15664.5 10499.03,15878.95 10560.1,15867.59 11025.94,15610.53 11153.76,15501.17 11301.47,15387.55 11288.68,15231.32 11221.25,14976.8 10925.51,14669.99 11036.76,15293.33 11039.28,15345.02 11031.72,15381.57 11010.29,15419.39 10978.78,15444.6 10513.64,15645.02 10044.73,15442.08 10020.78,15421.91 9993.05,15391.66 9971.62,15358.88 10093.52,14680.34 9907.32,14885.74 " />
      <path class="fil1" d="M9857.08 15502.59l-148.81 128.8 -705.31 458.27 744.32 -857.69 -25.13 100.19 134.93 170.43zm1431.6 -271.27l757.78 851.43 -892.7 -581.58 147.71 -113.62 -12.79 -156.23z" />
      <path class="fil2" d="M8560.38 14749.1l25.46 428.21 210.89 1049.55 206.23 -137.2 744.32 -857.69 66.17 -263.8 -76.08 66.83 -888.14 2.95 -288.85 -288.85zm2660.87 227.7l67.43 254.52 757.78 851.43 200.56 153.92 176.56 -865.64 85.87 -674.31 -364.78 342.71 -852.67 -4.43 -70.75 -58.2z" />
      <polygon class="fil3" points="10229.47,14123.22 10785.12,14121.74 10925.51,14669.99 11036.76,15293.33 11039.28,15345.02 11031.72,15381.57 11010.29,15419.39 10978.78,15444.6 10513.64,15645.02 10044.73,15442.08 10020.78,15421.91 9993.05,15391.66 9971.62,15358.88 10093.52,14680.34 " />
    </g>
    <g>
      <polygon class="fil4" points="8225.37,15504.2 8244.25,16474.99 8772.36,17453.1 8806.32,17492.16 9592.55,18045.74 10533.3,18274.98 11433.29,18045.74 12216.12,17480.27 12784.98,16500.47 12810.99,15504.41 12808.32,14060.66 12573.23,14251.78 12559.93,14649.3 12509.45,14696.72 12423.58,15371.03 12247.02,16236.67 12046.46,16082.75 11153.76,15501.17 11025.94,15610.53 10560.1,15867.59 10499.03,15878.95 10080.06,15664.5 9857.08,15502.59 9708.27,15631.39 9002.96,16089.66 8796.73,16226.86 8585.84,15177.31 8560.38,14749.1 8457.62,14646.35 8448.75,14245.87 8230.33,14062.15 " />
      <polygon class="fil5" points="9586.57,16296.14 9532.69,16389.53 10057.1,16624.8 10982,16626.59 11501.02,16385.94 11438.16,16299.74 " />
      <path class="fil6" d="M9532.69 16389.53l-726.37 1102.63 786.23 553.58 464.55 -1420.94 -524.41 -235.27zm1968.33 -3.59l715.1 1094.33 -782.83 565.47 -451.29 -1419.15 519.02 -240.65z" />
      <polygon class="fil7" points="10982,16626.59 11433.29,18045.74 10533.3,18274.98 9592.55,18045.74 10057.1,16624.8 " />
    </g>
    <path class="fil8" d="M8632.03 12231.03l-680.72 291.73 -8.84 66.31 -24.24 1210.52 -132.68 -32.54 -225.43 313.84 68.52 587.89 280.68 658.61 316.05 176.81 4.96 -1442.05 114.38 -491.8 287.32 -1339.32zm3757.73 -7.85l687 282.49 41.77 1302.79 115.36 -40.78 227.33 317.6 -53.49 518.17 -305.89 747.18 -290.85 153.78 -2.67 -1443.75 -418.56 -1837.48z" />
    <g>
      <polygon class="fil9" points="9411.35,11462.65 11606.69,11452.82 12389.76,12223.18 11680.6,13574.54 11138.31,13567.58 10793.99,13938.5 10208.79,13945.89 9862.99,13576.45 9369.74,13581.49 8632.03,12231.03 " />
      <path class="fil10" d="M11606.69 11452.82l1159.61 485.79 310.46 567.06 -687 -282.49 -783.07 -770.36zm-3655.38 1069.94l316.73 -585.37 1143.31 -474.74 -779.32 768.38 -680.72 291.73z" />
      <path class="fil11" d="M8632.03 12231.03l-367 1681.91 182.24 59.55 403.44 -385.7 519.03 -5.3 -737.71 -1350.46zm3757.73 -7.85l383.35 1682.94 -219.09 61.93 -378.31 -387.17 -495.11 -6.34 709.16 -1351.36z" />
    </g>
    <g>
      <polygon class="fil12" points="7918.23,13799.59 8447.27,13972.49 8850.71,13586.79 9862.99,13576.45 10208.79,13945.89 10793.99,13938.5 11138.31,13567.58 12175.71,13580.88 12554.02,13968.05 13118.53,13808.46 12573.23,14251.78 12559.93,14649.3 12144.67,15039.43 11292,15035 11221.25,14976.8 10925.51,14669.99 10785.12,14121.74 10229.47,14123.22 10093.52,14680.34 9907.32,14885.74 9737.37,15035 8849.23,15037.95 8457.62,14646.35 8448.75,14245.87 " />
      <polygon class="fil13" points="11237.17,13736.98 10993.17,13978.82 11029.88,14512.17 11301.95,14840.38 12085.78,14844.7 12368.65,14589.9 12401.04,14052.24 12092.26,13741.29 " />
      <polygon class="fil13" points="8617.93,14034.96 8635.21,14576.95 8894.32,14840.38 9665.2,14857.66 9982.62,14559.67 10019.32,14199.07 10010.69,14034.96 9999.89,14006.89 9764.53,13747.77 8913.76,13743.45 " />
      <path class="fil14" d="M9200.77 14412.09l531.29 2.8c0,0 24.27,-100.85 -44.82,-199.82 -69.09,-98.97 -165.27,-126.05 -173.67,-127.92 -8.4,-1.87 -118.58,-36.42 -206.35,40.15 -87.77,76.57 -131.66,148.46 -106.45,284.79zm2103.12 11.02l530.87 0.71c0,0 42.36,-108.72 -31.06,-220.26 -73.42,-111.54 -182.13,-136.25 -282.38,-112.25 -100.25,24 -245.67,103.07 -217.43,331.8z" />
    </g>
    <path class="fil15" d="M11023.48 14419.32l280.41 3.79c176.96,0.24 353.91,0.47 530.87,0.71 268.84,18.01 424.51,90.65 533.89,166.08l-282.87 254.8 -783.83 -4.32 -272.07 -328.21 -6.4 -92.85zm-1026.56 -0.12l-264.86 -4.31c-176.96,0.24 -354.33,-3.04 -531.29,-2.8 -313.01,17.05 -443.7,68.3 -565.56,164.86l259.11 263.43 770.88 17.28 317.42 -297.99 14.3 -140.47z" />
  </g>
  <g id="forehead-cogs" opacity="0.95">
    <g transform="translate(9050 12280) scale(3.75)">
      <g transform="translate(-128,-128)">
        <use href="#cog" />
        <animateTransform attributeName="transform" type="rotate" from="0 128 128" to="-360 128 128" dur="6s" repeatCount="indefinite" />
      </g>
    </g>
    <g transform="translate(9750 11600) scale(6)">
      <g transform="translate(-128,-128)">
        <use href="#cog" />
        <animateTransform attributeName="transform" type="rotate" from="0 128 128" to="360 128 128" dur="9s" repeatCount="indefinite" />
      </g>
    </g>
    <g transform="translate(10950 12440) scale(4)">
      <g transform="translate(-128,-128)">
        <use href="#cog" />
        <animateTransform attributeName="transform" type="rotate" from="0 128 128" to="-360 128 128" dur="6s" repeatCount="indefinite" />
      </g>
    </g>
  </g>
</svg>
