<?xml version="1.0" encoding="UTF-8"?>
<svg
  xmlns="http://www.w3.org/2000/svg"
  version="1.1"
  width="1000px"
  height="1000px"
  style="shape-rendering:geometricPrecision; text-rendering:geometricPrecision; image-rendering:optimizeQuality; fill-rule:evenodd; clip-rule:evenodd"
  viewBox="-55.42 -0.89 6154.25 8639.58"
>
  <defs>
    <style type="text/css">
      <![CDATA[
        .fil14 {fill:#797979}
        .fil12 {fill:#848484}
        .fil5 {fill:#9D9D9D}
        .fil0 {fill:#A4A4A4}
        .fil8 {fill:#A5A5A5}
        .fil13 {fill:#B2B2B2}
        .fil1 {fill:#BBBBBB}
        .fil6 {fill:#BEBEBE}
        .fil15 {fill:#BFBFBF}
        .fil3 {fill:silver}
        .fil2 {fill:#C6C6C6}
        .fil10 {fill:#C7C7C7}
        .fil11 {fill:#CDCDCD}
        .fil7 {fill:#D0D0D0}
        .fil9 {fill:#DBDBDB}
        .fil4 {fill:gainsboro}
      ]]>
    </style>
  </defs>
  <g>
    <g>
      <polygon class="fil0" points="2319.5,5293.13 2227.13,5661.38 2363.64,5833.81 2589.23,5997.62 3013.11,6214.58 3074.89,6203.09 3546.19,5943.01 3675.51,5832.37 3824.95,5717.42 3812.01,5559.36 3743.79,5301.86 3444.59,4991.45 3557.14,5622.1 3559.69,5674.39 3552.04,5711.37 3530.36,5749.63 3498.48,5775.14 3027.89,5977.91 2553.49,5772.59 2529.25,5752.18 2501.2,5721.58 2479.52,5688.41 2602.85,5001.92 2414.46,5209.73 "/>
      <path class="fil1" d="M2363.64 5833.81l-150.55 130.31 -713.57 463.64 753.04 -867.74 -25.42 101.36 136.51 172.43zm1448.38 -274.45l766.66 861.41 -903.16 -588.39 149.44 -114.95 -12.94 -158.06z"/>
      <path class="fil2" d="M1051.74 5071.49l25.76 433.23 213.36 1061.85 208.65 -138.81 753.04 -867.74 66.95 -266.89 -76.97 67.61 -898.55 2.98 -292.23 -292.23zm2692.05 230.37l68.22 257.5 766.66 861.41 202.91 155.72 178.63 -875.78 86.88 -682.21 -369.05 346.73 -862.66 -4.48 -71.58 -58.88z"/>
      <polygon class="fil3" points="2740.39,4438.28 3302.55,4436.78 3444.59,4991.45 3557.14,5622.1 3559.69,5674.39 3552.04,5711.37 3530.36,5749.63 3498.48,5775.14 3027.89,5977.91 2553.49,5772.59 2529.25,5752.18 2501.2,5721.58 2479.52,5688.41 2602.85,5001.92 "/>
    </g>
    <g>
      <polygon class="fil4" points="712.81,5835.44 731.91,6817.6 1266.21,7807.17 1300.56,7846.69 2096.01,8406.76 3047.78,8638.69 3958.32,8406.76 4750.32,7834.66 5325.85,6843.38 5352.16,5835.65 5349.46,4374.98 5111.61,4568.34 5098.16,4970.52 5047.09,5018.5 4960.21,5700.71 4781.58,6576.49 4578.67,6420.77 3675.51,5832.37 3546.19,5943.01 3074.89,6203.09 3013.11,6214.58 2589.23,5997.62 2363.64,5833.81 2213.08,5964.12 1499.51,6427.76 1290.86,6566.57 1077.5,5504.72 1051.74,5071.49 947.78,4967.54 938.8,4562.36 717.82,4376.49 "/>
      <polygon class="fil5" points="2089.96,6636.66 2035.45,6731.14 2566,6969.17 3501.74,6970.98 4026.84,6727.51 3963.24,6640.3 "/>
      <path class="fil6" d="M2035.45 6731.14l-734.88 1115.55 795.44 560.07 469.99 -1437.59 -530.56 -238.03zm1991.39 -3.63l723.48 1107.15 -792 572.1 -456.58 -1435.78 525.1 -243.47z"/>
      <polygon class="fil7" points="3501.74,6970.98 3958.32,8406.76 3047.78,8638.69 2096.01,8406.76 2566,6969.17 "/>
    </g>
    <path class="fil8" d="M1124.23 2523.91l-688.7 295.15 -8.94 67.09 -24.52 1224.7 -134.23 -32.92 -228.07 317.52 69.32 594.78 283.97 666.33 319.75 178.88 5.02 -1458.95 115.72 -497.56 290.69 -1355.01zm3801.76 -7.94l695.05 285.8 42.26 1318.06 116.71 -41.26 229.99 321.32 -54.12 524.24 -309.47 755.94 -294.26 155.58 -2.7 -1460.67 -423.46 -1859.01z"/>
    <g>
      <polygon class="fil9" points="1912.68,1746.53 4133.75,1736.58 4925.99,2515.97 4208.52,3883.17 3659.88,3876.12 3311.52,4251.39 2719.47,4258.87 2369.62,3885.1 1870.59,3890.2 1124.23,2523.91 "/>
      <path class="fil10" d="M4133.75 1736.58l1173.2 491.48 314.1 573.7 -695.05 -285.8 -792.25 -779.39zm-3698.21 1082.48l320.44 -592.23 1156.71 -480.3 -788.45 777.38 -688.7 295.15z"/>
      <path class="fil11" d="M1124.23 2523.91l-371.3 1701.62 184.38 60.25 408.17 -390.22 525.11 -5.36 -746.35 -1366.28zm3801.76 -7.94l387.84 1702.66 -221.66 62.66 -382.74 -391.71 -500.91 -6.41 717.47 -1367.2z"/>
    </g>
    <g>
      <polygon class="fil12" points="402.07,4110.85 937.31,4285.78 1345.47,3895.56 2369.62,3885.1 2719.47,4258.87 3311.52,4251.39 3659.88,3876.12 4709.44,3889.58 5092.18,4281.29 5663.3,4119.83 5111.61,4568.34 5098.16,4970.52 4678.03,5365.22 3815.37,5360.74 3743.79,5301.86 3444.59,4991.45 3302.55,4436.78 2740.39,4438.28 2602.85,5001.92 2414.46,5209.73 2242.52,5360.74 1343.98,5363.72 947.78,4967.54 938.8,4562.36 "/>
      <polygon class="fil13" points="3759.9,4047.51 3513.04,4292.18 3550.18,4831.78 3825.44,5163.84 4618.45,5168.21 4904.64,4910.42 4937.41,4366.46 4625.01,4051.87 "/>
      <polygon class="fil13" points="1109.97,4348.98 1127.45,4897.32 1389.59,5163.84 2169.51,5181.32 2490.65,4879.84 2527.78,4515.01 2519.05,4348.98 2508.12,4320.58 2270,4058.43 1409.26,4054.06 "/>
      <path class="fil14" d="M1699.64 4730.53l537.52 2.83c0,0 24.55,-102.03 -45.35,-202.16 -69.9,-100.13 -167.21,-127.53 -175.71,-129.42 -8.5,-1.89 -119.97,-36.85 -208.77,40.62 -88.8,77.47 -133.2,150.2 -107.7,288.13zm2127.76 11.15l537.09 0.72c0,0 42.86,-109.99 -31.42,-222.84 -74.28,-112.85 -184.26,-137.85 -285.69,-113.57 -101.42,24.28 -248.55,104.28 -219.98,335.69z"/>
    </g>
    <path class="fil15" d="M3543.7 4737.84l283.7 3.83c179.03,0.24 358.06,0.48 537.09,0.72 271.99,18.22 429.48,91.71 540.15,168.03l-286.18 257.79 -793.01 -4.37 -275.26 -332.06 -6.47 -93.94zm-1038.59 -0.12l-267.96 -4.36c-179.03,0.24 -358.48,-3.08 -537.52,-2.83 -316.68,17.25 -448.9,69.1 -572.19,166.79l262.15 266.52 779.91 17.48 321.14 -301.48 14.47 -142.12z"/>
    <g>
      <path class="fil12" d="M6098.82 2839.88l0 243.19c-5.4,31.83 -13.47,58.15 -24.3,76.5 -225.13,381.43 -2615.74,481.26 -3105,480.13 -524.52,-1.2 -2778.5,-181.94 -2927.87,-456.13 -97.07,-119.75 -15.98,-752.73 156.06,-778.96 346.52,-52.86 239.02,-20.51 297.34,-278.89 86.53,-383.32 233.27,-753.13 561.24,-1067.92 106.08,-101.82 715.59,-451.14 721.69,-468.94 102.02,-297.67 558.07,-233.83 947.72,-310.9 166.65,-32.97 -102.33,-278.85 298.69,-277.94 293.82,0.67 303.91,57.86 310.02,270.07 309.08,0 891.77,88.82 977.02,290.42 33.42,79.02 519.6,305.51 710.16,477 225.09,202.57 338.89,415.39 450.98,658.22 55.82,120.93 92.83,268.44 124.66,399.63 39.38,162.23 -23.86,307.14 258.4,306.11 135.32,-0.5 218.05,227.67 243.2,438.42z"/>
    </g>
    <path class="fil9" d="M2481.26 1034.9c3.48,5.04 36.64,60.64 39.12,63.26l314.37 -84.94c8.04,-109.46 47.68,-592.91 70.91,-802.67l11.86 -107.41c1.43,-13.44 13.17,-23.28 26.51,-22.52l213.52 -0.02c13.01,0 23.71,9.86 25.05,22.52l11.67 104.68c23.17,207.73 40.11,689.58 47.4,803.43l349.6 97.83c2.79,-3.09 24.18,-69.48 27.02,-73.54l-280.04 -73.05c-11.84,-3.07 -19.52,-14.04 -18.85,-25.8l10.49 -553.29c0.21,-13.91 11.68,-25.01 25.59,-24.8 30.54,0.48 181.67,20.65 337.03,43.19 168.5,24.45 343.39,51.91 375.48,60.17 80.54,20.74 125.73,117.6 151.38,226.29 24.16,102.39 31.6,216.08 34.9,280.32 4.07,78.95 30.09,497.22 54.75,804 11.76,146.25 22.76,265.36 30,305.46l5.14 0c20.04,0.1 44.72,0.11 61.32,-1.84l-40.75 -1293.62c-0.44,-13.91 10.49,-25.55 24.4,-25.98 2.46,-0.08 4.85,0.2 7.11,0.79 4.19,1.08 7.97,3.23 11.03,6.13 36.45,20.83 156.49,91.07 261.6,153.18 83.6,49.39 159.06,94.18 175.72,104.5 41.07,25.48 102.5,84.91 161.61,149.46 71.82,78.45 141.25,165.52 166.23,207.99 93.39,158.79 161.06,291.56 213.17,433.51 52.14,142.01 88.74,293.19 119.97,488.68 43.52,272.31 17.21,417.69 -116.51,497.11 -127.95,76 -353.13,84.07 -713.1,84.05 -277.68,-0.02 -551.91,3.61 -823.6,7.2 -269.89,3.57 -537.31,7.1 -792.37,7.1 -252.01,0 -515.7,-3.54 -781.66,-7.11 -273.42,-3.66 -549.33,-7.37 -829.22,-7.19 -373.27,0.23 -599.23,-2.04 -727.78,-75.25 -134.25,-76.47 -159.79,-221.33 -126.61,-504.25 19.36,-165.08 59.63,-332.35 116.73,-490 56.93,-157.19 130.65,-304.9 217.16,-431.43 46.91,-68.62 225.71,-234.02 402.44,-376.91 150.69,-121.84 301.43,-228.33 370.8,-246.81 13.48,-3.54 27.29,4.5 30.83,17.98 0.75,2.85 0.98,5.72 0.75,8.5l-38.27 1292.7c16.25,2.03 41.44,2.41 61.36,2.69l3.58 0.05c7.23,-45.13 20.17,-189.3 33.9,-359.69 24.44,-303.22 50.01,-684.43 51.61,-750.19 1.88,-77.09 13.64,-229.06 52.91,-345.09 27.09,-80.04 67.97,-144.3 128.97,-161.28 26.01,-7.24 201.43,-34.73 372.26,-59.62 159.47,-23.23 316.14,-44.36 344.88,-44.81 13.91,-0.16 25.32,10.99 25.49,24.9l7.07 548.91c0.13,11.65 -7.67,21.55 -18.38,24.55l-277.55 77.95z"/>
    <path class="fil13" d="M269.23 2483.31l209.29 -0.04c13.96,0 25.29,11.33 25.29,25.29 0,436.22 202.97,466.25 755.07,462.1 65.01,-0.49 137.04,2.15 190.23,2.15 264.59,0 542.08,9.95 812.33,13.55 260.9,3.48 489.93,11.36 763.66,11.36 273.41,0 567.73,-7.88 828.71,-11.36 270.39,-3.6 529.12,-7.23 793.57,-7.23 51.67,0 142.65,-5.81 207.25,-5.34 552.81,4.07 741.2,-29.14 741.2,-465.23 0,-13.96 11.33,-25.29 25.29,-25.29l2.22 0.1 200.39 -0.31c12.74,0 23.27,9.46 24.96,21.74l19.02 135.22 88.53 36.85c10.29,4.27 16.25,14.56 15.51,25.08 0.04,45.18 2.29,89.19 4.38,130.52 10.77,211.03 18.26,357.59 -259.28,417.76 -114.88,24.9 -284.91,55.47 -457.76,81.7 -150.98,22.92 -304.5,42.58 -425.85,52.38l-13.96 1.12c-607.04,49 -1288.51,104 -1966.78,105.92 -284.48,0.81 -591.66,-13.63 -896.29,-37.24 -358.72,-27.81 -714.98,-68.39 -1027.13,-111.82l-0.26 -0.04c-115.6,-10.44 -289.14,-27.4 -443.82,-58.87 -160.45,-32.65 -301.76,-81.96 -344.13,-158.17 -11.65,-20.97 -7.35,-78.04 -2.38,-144.06 5.3,-70.32 11.43,-151.79 1.67,-194.34 -0.6,-2.59 -0.76,-5.19 -0.56,-7.71 4.82,-58.11 28.18,-73.28 53.98,-90.04 25.94,-16.86 55.79,-36.25 50.45,-179.59 -0.49,-13.91 10.39,-25.6 24.3,-26.08l0.89 -0.06z"/>
  </g>
</svg>
