
          <svg xmlns="http://www.w3.org/2000/svg" xmlns:cc="http://creativecommons.org/ns#" xmlns:rdf="http://www.w3.org/1999/02/22-rdf-syntax-ns#" version="1.1" width="360.78125" height="141.5">
            <defs>
              <style type="text/css">svg {
          background-color: #fff; }
        
        .root text,
        .root tspan {
          font: 12px Arial; }
        
        .root path {
          fill-opacity: 0;
          stroke-width: 2px;
          stroke: #000; }
        
        .root circle {
          fill: #6b6659;
          stroke-width: 2px;
          stroke: #000; }
        
        .anchor text, .any-character text {
          fill: #fff; }
        
        .anchor rect, .any-character rect {
          fill: #6b6659; }
        
        .escape text, .charset-escape text, .literal text {
          fill: #000; }
        
        .escape rect, .charset-escape rect {
          fill: #bada55; }
        
        .literal rect {
          fill: #dae9e5; }
        
        .charset .charset-box {
          fill: #cbcbba; }
        
        .subexp .subexp-label tspan,
        .charset .charset-label tspan,
        .match-fragment .repeat-label tspan {
          font-size: 10px; }
        
        .repeat-label {
          cursor: help; }
        
        .subexp .subexp-label tspan,
        .charset .charset-label tspan {
          dominant-baseline: text-after-edge; }
        
        .subexp .subexp-box {
          stroke: #908c83;
          stroke-dasharray: 6,2;
          stroke-width: 2px;
          fill-opacity: 0; }
        
        .quote {
          fill: #908c83; }
        </style>
            </defs>
            <metadata>
              <rdf:rdf>
                <cc:license rdf:about="http://creativecommons.org/licenses/by/3.0/">
                  <cc:permits rdf:resource="http://creativecommons.org/ns#Reproduction"></cc:permits>
                  <cc:permits rdf:resource="http://creativecommons.org/ns#Distribution"></cc:permits>
                  <cc:requires rdf:resource="http://creativecommons.org/ns#Notice"></cc:requires>
                  <cc:requires rdf:resource="http://creativecommons.org/ns#Attribution"></cc:requires>
                  <cc:permits rdf:resource="http://creativecommons.org/ns#DerivativeWorks"></cc:permits>
                </cc:license>
              </rdf:rdf>
            </metadata>
          <desc>Created with Snap</desc><g class="root" transform="matrix(1,0,0,1,15,10)"><g class="regexp match" transform="matrix(1,0,0,1,10,0)"><path d="M70.703125,66.25H80.7031M102.0390375,66.25H112.0391M148.05472500000002,66.25H173.0547M219.070325,66.25H244.0703"></path><g class="match-fragment" transform="matrix(1,0,0,1,0,54.5)"><g class="label anchor"><rect width="70.703125" height="23.5"></rect><text x="0" y="0" transform="matrix(1,0,0,1,5,16.75)"><tspan>Start of line</tspan></text></g></g><g class="match-fragment literal" transform="matrix(1,0,0,1,80.7031,54.5)"><g class="label"><rect width="21.3359375" height="23.5" rx="3" ry="3"></rect><text x="0" y="0" transform="matrix(1,0,0,1,5,16.75)"><tspan class="quote">“</tspan><tspan>.</tspan><tspan class="quote">”</tspan></text></g></g><g class="match-fragment escape" transform="matrix(1,0,0,1,112.0391,54.5)"><g class="label"><rect width="36.015625" height="23.5" rx="3" ry="3"></rect><text x="0" y="0" transform="matrix(1,0,0,1,5,16.75)"><tspan>word</tspan></text></g></g><g class="match-fragment" transform="matrix(1,0,0,1,158.0547,0)"><path d="M0,66.25q10,0 10,-10v-46.25q0,-10 10,-10h36.015625q10,0 10,10v46.25q0,10 10,10M15,66.25q-10,0 -10,10v35.25q0,10 10,10h46.015625q10,0 10,-10v-35.25q0,-10 -10,-10M71.015625,81.25l5,-5m-5,5l-5,-5"></path><g class="charset" transform="matrix(1,0,0,1,15,10)"><rect rx="3" ry="3" class="charset-box" transform="matrix(1,0,0,1,0,11)" width="46.015625" height="90.5"></rect><text x="0" y="0" class="charset-label" transform="matrix(1,0,0,1,0,11)"><tspan>One of:</tspan></text><g transform="matrix(1,0,0,1,5,16)"><g class="charset-escape" transform="matrix(1,0,0,1,0,0)"><g class="label"><rect width="36.015625" height="23.5" rx="3" ry="3"></rect><text x="0" y="0" transform="matrix(1,0,0,1,5,16.75)"><tspan>word</tspan></text></g></g><g class="literal" transform="matrix(1,0,0,1,7.3398,28.5)"><g class="label"><rect width="21.3359375" height="23.5" rx="3" ry="3"></rect><text x="0" y="0" transform="matrix(1,0,0,1,5,16.75)"><tspan class="quote">“</tspan><tspan>.</tspan><tspan class="quote">”</tspan></text></g></g><g class="literal" transform="matrix(1,0,0,1,7.0078,57)"><g class="label"><rect width="22" height="23.5" rx="3" ry="3"></rect><text x="0" y="0" transform="matrix(1,0,0,1,5,16.75)"><tspan class="quote">“</tspan><tspan>-</tspan><tspan class="quote">”</tspan></text></g></g></g></g></g><g class="match-fragment" transform="matrix(1,0,0,1,244.0703,54.5)"><g class="label anchor"><rect width="66.7109375" height="23.5"></rect><text x="0" y="0" transform="matrix(1,0,0,1,5,16.75)"><tspan>End of line</tspan></text></g></g></g><path d="M10,66.25H0M320.7812375,66.25H330.78125"></path><circle cx="0" cy="66.25" r="5"></circle><circle cx="330.78125" cy="66.25" r="5"></circle></g></svg>
        